<svg width="65" height="65" viewBox="0 0 65 65" fill="none" xmlns="http://www.w3.org/2000/svg">
<rect x="0.236877" y="0.746582" width="64" height="64" rx="32" fill="white"/>
<g clip-path="url(#clip0_26584_2610)">
<path d="M55.2369 32.7466C55.2369 20.044 44.9394 9.74658 32.2369 9.74658C19.5343 9.74658 9.23688 20.044 9.23688 32.7466C9.23688 44.2265 17.6476 53.7417 28.6431 55.4671V39.395H22.8033V32.7466H28.6431V27.6794C28.6431 21.915 32.0769 18.731 37.3305 18.731C39.847 18.731 42.4791 19.1802 42.4791 19.1802V24.8403H39.5788C36.7217 24.8403 35.8306 26.6132 35.8306 28.4322V32.7466H42.2095L41.1898 39.395H35.8306V55.4671C46.8261 53.7417 55.2369 44.2265 55.2369 32.7466Z" fill="#1877F2"/>
<path d="M41.1898 39.395L42.2095 32.7466H35.8306V28.4322C35.8306 26.6132 36.7217 24.8403 39.5788 24.8403H42.4791V19.1802C42.4791 19.1802 39.847 18.731 37.3305 18.731C32.0769 18.731 28.6431 21.915 28.6431 27.6794V32.7466H22.8033V39.395H28.6431V55.4671C31.0245 55.8398 33.4493 55.8398 35.8306 55.4671V39.395H41.1898Z" fill="white"/>
</g>
<defs>
<clipPath id="clip0_26584_2610">
<rect width="46" height="46" fill="white" transform="translate(9.23688 9.74658)"/>
</clipPath>
</defs>
</svg>
