<svg width="65" height="65" viewBox="0 0 65 65" fill="none" xmlns="http://www.w3.org/2000/svg">
<rect x="0.236877" y="0.5" width="64" height="64" rx="32" fill="white"/>
<path d="M34.675 29.5268H34.71V29.4708L34.675 29.5268ZM34.675 29.5268H34.71V29.4708L34.675 29.5268ZM34.675 29.5268H34.71V29.4708L34.675 29.5268ZM34.675 29.5268H34.71V29.4708L34.675 29.5268ZM34.675 29.5268H34.71V29.4708L34.675 29.5268ZM34.675 29.5268H34.71V29.4708L34.675 29.5268ZM34.675 29.5268H34.71V29.4708L34.675 29.5268ZM34.675 29.5268H34.71V29.4708L34.675 29.5268ZM34.675 29.5268H34.71V29.4708L34.675 29.5268ZM34.675 29.5268H34.71V29.4708L34.675 29.5268ZM34.675 29.5268H34.71V29.4708L34.675 29.5268ZM34.675 29.5268H34.71V29.4708L34.675 29.5268ZM34.675 29.5268H34.71V29.4708L34.675 29.5268ZM34.675 29.5268H34.71V29.4708L34.675 29.5268ZM34.675 29.5268H34.71V29.4708L34.675 29.5268ZM34.675 29.5268H34.71V29.4708L34.675 29.5268ZM32.4 8.92285C27.8837 8.92285 23.4688 10.2889 19.7136 12.8482C15.9584 15.4075 13.0316 19.0452 11.3032 23.3012C9.5749 27.5572 9.12269 32.2404 10.0038 36.7585C10.8849 41.2767 13.0597 45.4269 16.2532 48.6843C19.4468 51.9417 23.5156 54.16 27.9451 55.0587C32.3747 55.9574 36.966 55.4962 41.1386 53.7333C45.3111 51.9704 48.8775 48.985 51.3866 45.1547C53.8958 41.3244 55.235 36.8212 55.235 32.2146C55.2284 26.0393 52.8204 20.1189 48.5395 15.7523C44.2585 11.3857 38.4542 8.9296 32.4 8.92285ZM26.69 42.7002C26.6887 42.8034 26.6476 42.902 26.5755 42.9745C26.5034 43.0471 26.4063 43.0878 26.305 43.0878H21.905C21.8042 43.0878 21.7076 43.0469 21.6363 42.9742C21.565 42.9015 21.525 42.803 21.525 42.7002V27.6195C21.5243 27.5681 21.5337 27.5172 21.5525 27.4696C21.5713 27.4219 21.5992 27.3786 21.6345 27.3421C21.6699 27.3055 21.712 27.2765 21.7584 27.2567C21.8049 27.2369 21.8547 27.2267 21.905 27.2268H26.305C26.3556 27.2268 26.4056 27.2369 26.4523 27.2566C26.4991 27.2764 26.5415 27.3053 26.5772 27.3418C26.613 27.3782 26.6414 27.4215 26.6607 27.4692C26.6801 27.5168 26.69 27.5679 26.69 27.6195V42.7002ZM23.95 25.2122C23.4031 25.2122 22.8686 25.0468 22.4139 24.7369C21.9592 24.427 21.6048 23.9866 21.3955 23.4712C21.1862 22.9559 21.1315 22.3888 21.2381 21.8417C21.3448 21.2947 21.6082 20.7921 21.9949 20.3977C22.3816 20.0033 22.8742 19.7347 23.4106 19.6258C23.9469 19.517 24.5029 19.5729 25.0081 19.7863C25.5134 19.9998 25.9452 20.3613 26.249 20.8251C26.5528 21.2889 26.715 21.8341 26.715 22.392C26.7157 22.7625 26.6446 23.1295 26.5059 23.472C26.3672 23.8145 26.1635 24.1257 25.9066 24.3877C25.6497 24.6497 25.3447 24.8574 25.0089 24.9989C24.6731 25.1404 24.3133 25.2129 23.95 25.2122ZM45.31 42.7002C45.3087 42.8034 45.2676 42.902 45.1955 42.9745C45.1234 43.0471 45.0263 43.0878 44.925 43.0878H40.525C40.4751 43.0878 40.4257 43.0777 40.3796 43.0582C40.3335 43.0388 40.2916 43.0102 40.2563 42.9742C40.221 42.9382 40.193 42.8955 40.1739 42.8485C40.1548 42.8015 40.145 42.7511 40.145 42.7002V34.5963C40.145 32.4645 39.4 31.0263 37.53 31.0263C36.9473 31.0296 36.3799 31.2166 35.9055 31.5617C35.431 31.9069 35.0729 32.3932 34.88 32.9541C34.7482 33.3686 34.6906 33.8039 34.71 34.2393V42.7002C34.71 42.8043 34.6695 42.9042 34.5972 42.9778C34.525 43.0515 34.4271 43.0928 34.325 43.0928H29.925C29.8747 43.0929 29.8249 43.0827 29.7784 43.0629C29.732 43.0431 29.6899 43.0141 29.6545 42.9775C29.6192 42.941 29.5913 42.8977 29.5725 42.85C29.5537 42.8024 29.5443 42.7515 29.545 42.7002C29.545 40.548 29.6 30.0981 29.545 27.6399C29.5443 27.5885 29.5537 27.5376 29.5725 27.49C29.5913 27.4423 29.6192 27.399 29.6545 27.3625C29.6899 27.3259 29.732 27.2969 29.7784 27.2771C29.8249 27.2573 29.8747 27.2471 29.925 27.2472H34.315C34.3658 27.2465 34.4161 27.2562 34.4631 27.2756C34.5102 27.2951 34.5529 27.324 34.5887 27.3606C34.6246 27.3972 34.653 27.4408 34.6721 27.4888C34.6912 27.5367 34.7007 27.5881 34.7 27.6399V29.4911C35.1677 28.663 35.8488 27.9814 36.6694 27.5202C37.4901 27.0589 38.4188 26.8358 39.355 26.8749C42.75 26.8749 45.3 29.1393 45.3 34.0149L45.31 42.7002ZM34.71 29.5422V29.4861L34.675 29.5422H34.71ZM34.675 29.5422H34.71V29.4861L34.675 29.5422ZM34.675 29.5422H34.71V29.4861L34.675 29.5422ZM34.675 29.5422H34.71V29.4861L34.675 29.5422ZM34.675 29.5422H34.71V29.4861L34.675 29.5422ZM34.675 29.5422H34.71V29.4861L34.675 29.5422ZM34.675 29.5422H34.71V29.4861L34.675 29.5422ZM34.675 29.5422H34.71V29.4861L34.675 29.5422ZM34.675 29.5422H34.71V29.4861L34.675 29.5422ZM34.675 29.5422H34.71V29.4861L34.675 29.5422ZM34.675 29.5422H34.71V29.4861L34.675 29.5422ZM34.675 29.5422H34.71V29.4861L34.675 29.5422ZM34.675 29.5422H34.71V29.4861L34.675 29.5422ZM34.675 29.5422H34.71V29.4861L34.675 29.5422ZM34.675 29.5422H34.71V29.4861L34.675 29.5422Z" fill="#0B49D1"/>
</svg>
