<svg width="65" height="64" viewBox="0 0 65 64" fill="none" xmlns="http://www.w3.org/2000/svg">
<rect x="0.236877" width="64" height="64" rx="32" fill="white"/>
<g clip-path="url(#clip0_26584_2617)">
<mask id="mask0_26584_2617" style="mask-type:luminance" maskUnits="userSpaceOnUse" x="9" y="9" width="47" height="46">
<path d="M32.2369 55C44.9394 55 55.2369 44.7025 55.2369 32C55.2369 19.2975 44.9394 9 32.2369 9C19.5343 9 9.23688 19.2975 9.23688 32C9.23688 44.7025 19.5343 55 32.2369 55Z" fill="white"/>
</mask>
<g mask="url(#mask0_26584_2617)">
<path d="M19.1197 102.078C46.4103 102.078 68.5338 79.9547 68.5338 52.6641C68.5338 25.3734 46.4103 3.25 19.1197 3.25C-8.17094 3.25 -30.2944 25.3734 -30.2944 52.6641C-30.2944 79.9547 -8.17094 102.078 19.1197 102.078Z" fill="url(#paint0_radial_26584_2617)"/>
</g>
<path d="M38.7056 27.3281C39.698 27.3281 40.5025 26.5236 40.5025 25.5312C40.5025 24.5389 39.698 23.7344 38.7056 23.7344C37.7132 23.7344 36.9088 24.5389 36.9088 25.5312C36.9088 26.5236 37.7132 27.3281 38.7056 27.3281Z" fill="white"/>
<path d="M32.2369 26.25C31.0996 26.25 29.9879 26.5872 29.0424 27.2191C28.0968 27.8509 27.3598 28.7489 26.9246 29.7996C26.4894 30.8502 26.3755 32.0064 26.5974 33.1218C26.8192 34.2372 27.3669 35.2617 28.171 36.0659C28.9752 36.87 29.9997 37.4177 31.1151 37.6395C32.2305 37.8614 33.3866 37.7475 34.4373 37.3123C35.488 36.8771 36.386 36.1401 37.0178 35.1945C37.6497 34.2489 37.9869 33.1372 37.9869 32C37.9869 30.475 37.3811 29.0125 36.3027 27.9341C35.2244 26.8558 33.7619 26.25 32.2369 26.25ZM32.2369 34.875C31.6683 34.875 31.1124 34.7064 30.6396 34.3905C30.1668 34.0746 29.7983 33.6256 29.5807 33.1002C29.3631 32.5749 29.3062 31.9968 29.4171 31.4391C29.5281 30.8814 29.8019 30.3691 30.2039 29.9671C30.606 29.565 31.1183 29.2912 31.676 29.1802C32.2337 29.0693 32.8118 29.1262 33.3371 29.3438C33.8624 29.5614 34.3114 29.9299 34.6274 30.4027C34.9433 30.8755 35.1119 31.4314 35.1119 32C35.1119 32.7625 34.809 33.4938 34.2698 34.0329C33.7306 34.5721 32.9994 34.875 32.2369 34.875Z" fill="white"/>
<path d="M39.4244 20.5H25.0494C22.6676 20.5 20.7369 22.4308 20.7369 24.8125V39.1875C20.7369 41.5692 22.6676 43.5 25.0494 43.5H39.4244C41.8061 43.5 43.7369 41.5692 43.7369 39.1875V24.8125C43.7369 22.4308 41.8061 20.5 39.4244 20.5Z" stroke="white" stroke-width="3" stroke-miterlimit="10"/>
</g>
<defs>
<radialGradient id="paint0_radial_26584_2617" cx="0" cy="0" r="1" gradientUnits="userSpaceOnUse" gradientTransform="translate(19.1197 52.6641) scale(49.4141)">
<stop stop-color="#FFD676"/>
<stop offset="0.25" stop-color="#F2A454"/>
<stop offset="0.38" stop-color="#F05C3C"/>
<stop offset="0.7" stop-color="#C22F86"/>
<stop offset="0.96" stop-color="#6666AD"/>
<stop offset="0.99" stop-color="#5C6CB2"/>
</radialGradient>
<clipPath id="clip0_26584_2617">
<rect width="46" height="46" fill="white" transform="translate(9.23688 9)"/>
</clipPath>
</defs>
</svg>
