<svg width="277" height="48" viewBox="0 0 277 48" fill="none" xmlns="http://www.w3.org/2000/svg">
<path d="M73.8873 11.8345C66.781 11.8345 61.8288 16.6052 61.8288 23.9398V42.2793H67.2844V31.7779C68.8883 34.3008 71.5927 35.6764 74.8532 35.6764C80.3497 35.6764 86.1273 31.731 86.1273 23.9867C86.1273 16.7867 81.0873 11.8345 73.8873 11.8345ZM73.9283 30.5896C69.9419 30.5896 67.2844 27.7447 67.2844 23.7584C67.2844 19.772 69.9419 16.9271 73.9283 16.9271C77.9146 16.9271 80.6249 19.7662 80.6249 23.7584C80.6249 27.7506 77.9146 30.5896 73.9283 30.5896Z" fill="#6F6AF8"/>
<path d="M101.259 11.8345C94.1059 11.8345 89.06 16.8803 89.06 23.7584C89.06 30.6364 94.1 35.6823 101.259 35.6823C108.418 35.6823 113.458 30.6364 113.458 23.7584C113.458 16.8803 108.412 11.8345 101.259 11.8345ZM101.259 30.5896C97.2727 30.5896 94.5683 27.7447 94.5683 23.7584C94.5683 19.772 97.2727 16.9271 101.259 16.9271C105.245 16.9271 107.903 19.7662 107.903 23.7584C107.903 27.7506 105.245 30.5896 101.259 30.5896Z" fill="#6F6AF8"/>
<path d="M126.705 21.4227C124.276 21.1008 122.209 20.8257 122.209 19.0813C122.209 17.7525 123.403 16.6052 125.786 16.6052C127.94 16.6052 129.222 17.5652 129.357 18.9408H134.771C134.637 14.9545 131.241 11.8345 125.692 11.8345C120.143 11.8345 116.707 14.8667 116.707 19.4969C116.707 25.0403 121.84 25.6374 125.329 26.0998C127.758 26.4218 129.778 26.6501 129.778 28.3886C129.778 29.7642 128.584 30.9115 125.792 30.9115C122.999 30.9115 121.805 29.8989 121.759 28.3886H116.256C116.391 32.6091 120.02 35.6823 125.798 35.6823C131.575 35.6823 135.292 32.6559 135.292 28.0667C135.292 22.4237 129.743 21.8325 126.717 21.4227H126.705Z" fill="#6F6AF8"/>
<path d="M151.396 25.7777V26.3748C151.396 29.4479 149.839 30.5952 147.591 30.5952C145.343 30.5952 143.78 29.4011 143.78 26.3748V17.3894H156.851V12.4372H143.78V6.11523H138.324V26.3748C138.324 32.6557 142.088 35.6821 147.591 35.6821C153.093 35.6821 156.851 32.6557 156.851 26.3748V25.7777H151.396Z" fill="#6F6AF8"/>
<path d="M171.579 11.8345C164.379 11.8345 159.333 16.7925 159.333 23.9867C159.333 31.731 165.111 35.6764 170.613 35.6764C174.19 35.6764 177.263 33.9788 178.638 30.6306V35.0793H183.637V23.934C183.637 16.6403 178.685 11.8286 171.579 11.8286V11.8345ZM171.532 30.5896C167.546 30.5896 164.841 27.7447 164.841 23.7584C164.841 19.772 167.546 16.9271 171.532 16.9271C175.518 16.9271 178.182 19.7662 178.182 23.7584C178.182 27.7506 175.524 30.5896 171.532 30.5896Z" fill="#6F6AF8"/>
<path d="M187.214 6.11523V35.085H192.67V6.11523H187.214Z" fill="#6F6AF8"/>
<path d="M208.334 11.8345C201.181 11.8345 196.135 16.8803 196.135 23.7584C196.135 30.6364 201.181 35.6823 208.334 35.6823C215.487 35.6823 220.533 30.6364 220.533 23.7584C220.533 16.8803 215.487 11.8345 208.334 11.8345ZM208.334 30.5896C204.348 30.5896 201.643 27.7447 201.643 23.7584C201.643 19.772 204.348 16.9271 208.334 16.9271C212.32 16.9271 214.984 19.7662 214.984 23.7584C214.984 27.7506 212.32 30.5896 208.334 30.5896Z" fill="#6F6AF8"/>
<path d="M236.625 25.7777V26.3748C236.625 29.4479 235.062 30.5952 232.814 30.5952C230.566 30.5952 229.009 29.4011 229.009 26.3748V17.3894H242.08V12.4372H229.009V6.11523H223.553V26.3748C223.553 32.6557 227.317 35.6821 232.814 35.6821C238.311 35.6821 242.08 32.6557 242.08 26.3748V25.7777H236.625Z" fill="#6F6AF8"/>
<path d="M258.594 25.7777V26.3748C258.594 29.4479 257.037 30.5952 254.789 30.5952C252.541 30.5952 250.978 29.4011 250.978 26.3748V17.3894H264.049V12.4372H250.978V6.11523H245.522V26.3748C245.522 32.6557 249.286 35.6821 254.789 35.6821C260.291 35.6821 264.049 32.6557 264.049 26.3748V25.7777H258.594Z" fill="#6F6AF8"/>
<path d="M42.6696 36.9933C42.6696 36.9933 42.652 37.005 42.6403 37.0108L35.692 41.0206C34.6969 41.5942 33.4735 41.5942 32.4784 41.0206L25.5301 37.0108C25.5301 37.0108 25.5125 37.005 25.5008 36.9933C23.8384 36.0098 23.8384 33.5396 25.5008 32.5562C25.5125 32.5503 25.5184 32.5445 25.5301 32.5386L32.4784 28.5289C33.4735 27.9552 34.6969 27.9552 35.692 28.5289L42.6403 32.5386C42.6403 32.5386 42.6579 32.5445 42.6696 32.5562C44.332 33.5396 44.332 36.0098 42.6696 36.9933Z" fill="url(#paint0_linear_26584_2527)"/>
<path d="M31.653 25.9767C31.653 25.9767 31.6355 25.9884 31.6238 25.9942L24.6755 30.004C23.6803 30.5776 22.4569 30.5776 21.4618 30.004L14.5135 25.9942C14.5135 25.9942 14.496 25.9884 14.4842 25.9767C12.8218 24.9932 12.8218 22.523 14.4842 21.5396C14.496 21.5337 14.5018 21.5279 14.5135 21.522L21.4618 17.5123C22.4569 16.9386 23.6803 16.9386 24.6755 17.5123L31.6238 21.522C31.6238 21.522 31.6413 21.5279 31.653 21.5396C33.3155 22.523 33.3155 24.9932 31.653 25.9767Z" fill="url(#paint1_linear_26584_2527)"/>
<path d="M53.6862 25.9767C53.6862 25.9767 53.6686 25.9884 53.6569 25.9942L46.7086 30.004C45.7135 30.5776 44.4901 30.5776 43.495 30.004L36.5467 25.9942C36.5467 25.9942 36.5291 25.9884 36.5174 25.9767C34.855 24.9932 34.855 22.523 36.5174 21.5396C36.5291 21.5337 36.535 21.5279 36.5467 21.522L43.495 17.5123C44.4901 16.9386 45.7135 16.9386 46.7086 17.5123L53.6569 21.522C53.6569 21.522 53.6745 21.5279 53.6862 21.5396C55.3486 22.523 55.3486 24.9932 53.6862 25.9767Z" fill="#6F6AF8"/>
<path d="M42.6696 14.9601C42.6696 14.9601 42.652 14.9718 42.6403 14.9776L35.692 18.9874C34.6969 19.5611 33.4735 19.5611 32.4784 18.9874L25.5301 14.9776C25.5301 14.9776 25.5125 14.9718 25.5008 14.9601C23.8384 13.9767 23.8384 11.5064 25.5008 10.523C25.5125 10.5171 25.5184 10.5113 25.5301 10.5054L32.4784 6.49567C33.4735 5.92202 34.6969 5.92202 35.692 6.49567L42.6403 10.5054C42.6403 10.5054 42.6579 10.5113 42.6696 10.523C44.332 11.5064 44.332 13.9767 42.6696 14.9601Z" fill="#6F6AF8"/>
<defs>
<linearGradient id="paint0_linear_26584_2527" x1="24.2598" y1="34.7747" x2="43.9164" y2="34.7747" gradientUnits="userSpaceOnUse">
<stop stop-color="#84F8B2"/>
<stop offset="1" stop-color="#8CDCE2"/>
</linearGradient>
<linearGradient id="paint1_linear_26584_2527" x1="13.2374" y1="23.7581" x2="32.8999" y2="23.7581" gradientUnits="userSpaceOnUse">
<stop stop-color="#84F8B2"/>
<stop offset="1" stop-color="#8CDCE2"/>
</linearGradient>
</defs>
</svg>
