<svg width="65" height="64" viewBox="0 0 65 64" fill="none" xmlns="http://www.w3.org/2000/svg">
<rect x="0.236877" width="64" height="64" rx="32" fill="white"/>
<rect x="8.54156" y="8" width="48" height="48" rx="24" fill="#1877F2"/>
<path d="M44.6754 24.4894C43.7633 24.8851 42.7988 25.1466 41.8118 25.2659C42.8531 24.6439 43.6334 23.6652 44.008 22.5116C43.0295 23.0941 41.9583 23.5045 40.8411 23.7249C40.0943 22.9151 39.0998 22.376 38.0137 22.1923C36.9275 22.0085 35.8111 22.1905 34.8394 22.7096C33.8678 23.2287 33.096 24.0556 32.645 25.0607C32.194 26.0657 32.0893 27.192 32.3474 28.263C30.3689 28.1629 28.4336 27.6477 26.6672 26.7509C24.9008 25.8541 23.3428 24.5958 22.0944 23.0576C21.6565 23.8222 21.4264 24.6882 21.427 25.5693C21.4255 26.3876 21.6263 27.1935 22.0116 27.9154C22.3969 28.6373 22.9547 29.2528 23.6354 29.7069C22.8442 29.6854 22.07 29.4731 21.3785 29.0881V29.1488C21.3844 30.2953 21.7862 31.4045 22.5158 32.2889C23.2454 33.1733 24.2581 33.7786 25.3826 34.0023C24.9498 34.134 24.5004 34.2035 24.0479 34.2085C23.7347 34.2049 23.4223 34.1765 23.1136 34.1236C23.4338 35.1099 24.0535 35.9718 24.8864 36.5894C25.7194 37.207 26.7241 37.5496 27.7609 37.5696C26.0102 38.9471 23.8488 39.6989 21.6212 39.7051C21.2156 39.7065 20.8103 39.6822 20.4078 39.6323C22.6822 41.1008 25.3327 41.8804 28.0399 41.8771C29.9082 41.8965 31.7615 41.5434 33.4918 40.8385C35.222 40.1336 36.7945 39.091 38.1173 37.7716C39.4401 36.4522 40.4867 34.8824 41.1961 33.154C41.9054 31.4256 42.2632 29.5731 42.2486 27.7048C42.2486 27.4986 42.2486 27.2801 42.2486 27.0617C43.2007 26.3517 44.0219 25.4812 44.6754 24.4894Z" fill="#FCFDFF"/>
</svg>
