<svg width="215" height="332" viewBox="0 0 215 332" fill="none" xmlns="http://www.w3.org/2000/svg">
<path fill-rule="evenodd" clip-rule="evenodd" d="M10.1211 20.4053C4.59825 20.4053 0.121094 15.9281 0.121094 10.4053C0.121094 4.88243 4.59825 0.405273 10.1211 0.405273H101C101.213 0.405273 101.425 0.41196 101.635 0.425135C101.846 0.41196 102.057 0.405273 102.271 0.405273C107.794 0.405273 112.271 4.88243 112.271 10.4053V145.867C112.271 151.39 116.748 155.867 122.271 155.867H204.83C210.352 155.867 214.83 160.344 214.83 165.867C214.83 171.39 210.352 175.867 204.83 175.867H122.271C116.748 175.867 112.271 180.344 112.271 185.867V321.594C112.271 327.117 107.794 331.594 102.271 331.594C102.266 331.594 102.261 331.594 102.256 331.594C101.845 331.646 101.425 331.672 101 331.672H10.1211C4.59825 331.672 0.121094 327.195 0.121094 321.672C0.121094 316.15 4.59825 311.672 10.1211 311.672H82.2708C87.7936 311.672 92.2708 307.195 92.2708 301.672V241.738C92.2708 236.215 87.7936 231.738 82.2708 231.738H10.1211C4.59825 231.738 0.121094 227.261 0.121094 221.738C0.121094 216.215 4.59825 211.738 10.1211 211.738H82.2708C87.7936 211.738 92.2708 207.261 92.2708 201.738V130.5C92.2708 124.977 87.7936 120.5 82.2708 120.5H10.1211C4.59825 120.5 0.121094 116.023 0.121094 110.5C0.121094 104.977 4.59825 100.5 10.1211 100.5H82.2708C87.7936 100.5 92.2708 96.0226 92.2708 90.4998V30.4053C92.2708 24.8824 87.7936 20.4053 82.2708 20.4053H10.1211Z" fill="url(#paint0_linear_26584_2584)"/>
<defs>
<linearGradient id="paint0_linear_26584_2584" x1="-67.5206" y1="-10.2328" x2="184.323" y2="-35.5598" gradientUnits="userSpaceOnUse">
<stop stop-color="#2563EB"/>
<stop offset="1" stop-color="white" stop-opacity="0"/>
</linearGradient>
</defs>
</svg>
