<svg width="42" height="36" viewBox="0 0 42 36" fill="none" xmlns="http://www.w3.org/2000/svg">
<path d="M29.6696 30.9933C29.6696 30.9933 29.652 31.005 29.6403 31.0108L22.692 35.0206C21.6969 35.5942 20.4735 35.5942 19.4784 35.0206L12.5301 31.0108C12.5301 31.0108 12.5125 31.005 12.5008 30.9933C10.8384 30.0098 10.8384 27.5396 12.5008 26.5562C12.5125 26.5503 12.5184 26.5445 12.5301 26.5386L19.4784 22.5289C20.4735 21.9552 21.6969 21.9552 22.692 22.5289L29.6403 26.5386C29.6403 26.5386 29.6579 26.5445 29.6696 26.5562C31.332 27.5396 31.332 30.0098 29.6696 30.9933Z" fill="url(#paint0_linear_26584_2537)"/>
<path d="M18.653 19.9767C18.653 19.9767 18.6355 19.9884 18.6238 19.9942L11.6755 24.004C10.6803 24.5776 9.45692 24.5776 8.4618 24.004L1.51351 19.9942C1.51351 19.9942 1.49596 19.9884 1.48425 19.9767C-0.178191 18.9932 -0.178191 16.523 1.48425 15.5396C1.49596 15.5337 1.5018 15.5279 1.51351 15.522L8.4618 11.5123C9.45692 10.9386 10.6803 10.9386 11.6755 11.5123L18.6238 15.522C18.6238 15.522 18.6413 15.5279 18.653 15.5396C20.3155 16.523 20.3155 18.9932 18.653 19.9767Z" fill="url(#paint1_linear_26584_2537)"/>
<path d="M40.6862 19.9767C40.6862 19.9767 40.6686 19.9884 40.6569 19.9942L33.7086 24.004C32.7135 24.5776 31.4901 24.5776 30.495 24.004L23.5467 19.9942C23.5467 19.9942 23.5291 19.9884 23.5174 19.9767C21.855 18.9932 21.855 16.523 23.5174 15.5396C23.5291 15.5337 23.535 15.5279 23.5467 15.522L30.495 11.5123C31.4901 10.9386 32.7135 10.9386 33.7086 11.5123L40.6569 15.522C40.6569 15.522 40.6745 15.5279 40.6862 15.5396C42.3486 16.523 42.3486 18.9932 40.6862 19.9767Z" fill="#6F6AF8"/>
<path d="M29.6696 8.96008C29.6696 8.96008 29.652 8.97178 29.6403 8.97764L22.692 12.9874C21.6969 13.5611 20.4735 13.5611 19.4784 12.9874L12.5301 8.97764C12.5301 8.97764 12.5125 8.97178 12.5008 8.96008C10.8384 7.97666 10.8384 5.50641 12.5008 4.52299C12.5125 4.51714 12.5184 4.51129 12.5301 4.50543L19.4784 0.495674C20.4735 -0.077985 21.6969 -0.077985 22.692 0.495674L29.6403 4.50543C29.6403 4.50543 29.6579 4.51129 29.6696 4.52299C31.332 5.50641 31.332 7.97666 29.6696 8.96008Z" fill="#6F6AF8"/>
<defs>
<linearGradient id="paint0_linear_26584_2537" x1="11.2598" y1="28.7747" x2="30.9164" y2="28.7747" gradientUnits="userSpaceOnUse">
<stop stop-color="#84F8B2"/>
<stop offset="1" stop-color="#8CDCE2"/>
</linearGradient>
<linearGradient id="paint1_linear_26584_2537" x1="0.237419" y1="17.7581" x2="19.8999" y2="17.7581" gradientUnits="userSpaceOnUse">
<stop stop-color="#84F8B2"/>
<stop offset="1" stop-color="#8CDCE2"/>
</linearGradient>
</defs>
</svg>
